# xmcd CD database file
#
# Track frame offsets:
#	187
#	16640
#	35627
#	54800
#	66450
#	85017
#	106020
#	128095
#	148685
#	170202
#	190675
#
# Disc length: 2805 seconds
#
# Revision: 0
# Processed by: cddbd v1.5.1PL2 Copyright (c) Steve Scherf et al.
# Submitted via: CDex 1.51
#
DISCID=8b0af30b
DTITLE=Various Artist - MIDI BEST FILE
DYEAR=1985
DGENRE=JPop
TTITLE0=STEPPIN' INTO ASIA(TV TRACK)/坂本龍一
TTITLE1=ベジタブル/大貫妙子
TTITLE2=音楽のような風/EPO
TTITLE3=FIELD WORK(Edit)/坂本龍一-featuring THOMAS DOLBY
TTITLE4=The green-eyed monster/鈴木さえ子
TTITLE5=彩 夏 夢/かしぶち哲郎
TTITLE6=CHICKEN CONSOMME(Edit)/立花ハジメ
TTITLE7=Les aventures de TINTIN/大貫妙子
TTITLE8=THE RHYTHM BOXER(Edit)/清水信之+村上秀一ユニット
TTITLE9=光の中へ/高橋鮎生
TTITLE10=１２月のエイプリルフール/EPO
EXTD=YEAR: 1985
EXTT0=
EXTT1=
EXTT2=
EXTT3=
EXTT4=
EXTT5=
EXTT6=
EXTT7=
EXTT8=
EXTT9=
EXTT10=
PLAYORDER=
